<svg width="193" height="71" viewBox="0 0 193 71" fill="none" xmlns="http://www.w3.org/2000/svg">
<path d="M2.76562 64.0391C1.09896 64.0391 0.604167 63.349 1.28125 61.9688C1.77604 61.0052 4.64062 57.0729 9.875 50.1719L23 33.2188C29.5104 24.5469 32.7656 18.1667 32.7656 14.0781C32.7656 11.1094 31.8802 8.73958 30.1094 6.96875C28.4167 5.27604 26.2031 4.42969 23.4688 4.42969C21.0729 4.42969 18.651 5.1849 16.2031 6.69531C14.1198 7.9974 12.8568 9.22135 12.4141 10.3672C11.7891 11.9557 11.4375 13.1146 11.3594 13.8438C11.2812 14.5729 11.2292 15.3932 11.2031 16.3047C11.151 17.8411 10.9036 18.6094 10.4609 18.6094C10.1745 18.6094 9.86198 18.4141 9.52344 18.0234C9.1849 17.6328 8.85938 17.3073 8.54688 17.0469C8.23438 16.7604 7.72656 16.3568 7.02344 15.8359C6.34635 15.3151 5.65625 14.7812 4.95312 14.2344C3.23438 12.8281 2.375 11.9167 2.375 11.5C2.375 11.0833 2.55729 10.7969 2.92188 10.6406C3.28646 10.4844 3.75521 10.3542 4.32812 10.25C6.22917 9.85938 7.46615 9.46875 8.03906 9.07812C8.61198 8.6875 9.11979 8.27083 9.5625 7.82812C10.0052 7.38542 10.5391 6.8776 11.1641 6.30469C11.8151 5.73177 12.5573 5.13281 13.3906 4.50781C14.224 3.88281 15.1615 3.29688 16.2031 2.75C18.5208 1.57812 20.7083 0.979167 22.7656 0.953125C24.849 0.927083 26.6719 1.10938 28.2344 1.5C29.7969 1.89062 31.2031 2.58073 32.4531 3.57031C35.2917 5.8099 36.7109 9.29948 36.7109 14.0391C36.7109 18.987 33.5078 25.5625 27.1016 33.7656C24.9922 36.474 22.8568 39.3125 20.6953 42.2812C18.5339 45.25 16.8411 47.5417 15.6172 49.1562C14.4193 50.7708 13.3125 52.2552 12.2969 53.6094C10.0833 56.6042 8.6901 58.388 8.11719 58.9609C7.15365 59.9245 7.29688 60.4062 8.54688 60.4062C13.7292 60.4062 20.2526 60.849 28.1172 61.7344C30.0443 62.125 32.7917 61.0573 36.3594 58.5312C37.8177 57.4896 38.5469 57.5807 38.5469 58.8047C38.5469 59.4557 38.3906 60.1719 38.0781 60.9531C37.5312 62.4115 37.2578 63.7656 37.2578 65.0156L37.6094 68.4922C37.6094 69.638 37.0104 69.9505 35.8125 69.4297C35.5 69.2995 35.2266 69.1172 34.9922 68.8828C34.7839 68.6745 34.4193 68.388 33.8984 68.0234C33.3776 67.6589 32.8177 67.2812 32.2188 66.8906C30.8385 66.0312 29.7057 65.5104 28.8203 65.3281C27.9349 65.1719 26.6328 64.9896 24.9141 64.7812C23.1953 64.599 21.3333 64.4427 19.3281 64.3125C14.5625 64 10.6953 63.8438 7.72656 63.8438L2.76562 64.0391ZM78.5469 65.25C75.5521 67.5938 71.724 68.2057 67.0625 67.0859C63.8854 66.3047 61.0469 64.4427 58.5469 61.5C54.0938 56.2656 51.6198 47.5547 51.125 35.3672C51.099 34.9245 51.0859 34.4948 51.0859 34.0781V32.75C51.0859 23.375 52.8958 15.6276 56.5156 9.50781C58.2083 6.61719 60.2396 4.36458 62.6094 2.75C64.9792 1.10938 67.388 0.289062 69.8359 0.289062C72.3099 0.289062 74.5234 0.861979 76.4766 2.00781C78.4297 3.1276 80.2135 4.91146 81.8281 7.35938C85.3438 12.5938 87.5703 20.3802 88.5078 30.7188C89.1589 37.4375 88.7943 43.6354 87.4141 49.3125C85.6172 56.7344 82.6615 62.0469 78.5469 65.25ZM69.0547 4.97656L67.2969 4.82031C66.151 4.82031 64.6927 5.73177 62.9219 7.55469C60.7865 9.71615 59.1979 12.1901 58.1562 14.9766C56.151 20.4453 55.1484 26.6172 55.1484 33.4922C55.1484 48.1797 58.4688 57.724 65.1094 62.125C67.1667 63.5052 69.0938 64.1823 70.8906 64.1562C72.6875 64.1302 74.3932 63.4792 76.0078 62.2031C77.6224 60.9271 79.0938 59.0911 80.4219 56.6953C84.0938 49.9766 85.5 41.2917 84.6406 30.6406C83.9896 23.0104 82.5182 16.9297 80.2266 12.3984C78.5599 9.11719 76.5677 6.76042 74.25 5.32812C73.3906 4.80729 72.6875 4.49479 72.1406 4.39062C72.1406 4.39062 71.8672 4.32552 71.3203 4.19531C70.9297 4.19531 70.487 4.32552 69.9922 4.58594C69.5234 4.84635 69.2109 4.97656 69.0547 4.97656ZM104.328 64.0391C102.661 64.0391 102.167 63.349 102.844 61.9688C103.339 61.0052 106.203 57.0729 111.438 50.1719L124.562 33.2188C131.073 24.5469 134.328 18.1667 134.328 14.0781C134.328 11.1094 133.443 8.73958 131.672 6.96875C129.979 5.27604 127.766 4.42969 125.031 4.42969C122.635 4.42969 120.214 5.1849 117.766 6.69531C115.682 7.9974 114.419 9.22135 113.977 10.3672C113.352 11.9557 113 13.1146 112.922 13.8438C112.844 14.5729 112.792 15.3932 112.766 16.3047C112.714 17.8411 112.466 18.6094 112.023 18.6094C111.737 18.6094 111.424 18.4141 111.086 18.0234C110.747 17.6328 110.422 17.3073 110.109 17.0469C109.797 16.7604 109.289 16.3568 108.586 15.8359C107.909 15.3151 107.219 14.7812 106.516 14.2344C104.797 12.8281 103.938 11.9167 103.938 11.5C103.938 11.0833 104.12 10.7969 104.484 10.6406C104.849 10.4844 105.318 10.3542 105.891 10.25C107.792 9.85938 109.029 9.46875 109.602 9.07812C110.174 8.6875 110.682 8.27083 111.125 7.82812C111.568 7.38542 112.102 6.8776 112.727 6.30469C113.378 5.73177 114.12 5.13281 114.953 4.50781C115.786 3.88281 116.724 3.29688 117.766 2.75C120.083 1.57812 122.271 0.979167 124.328 0.953125C126.411 0.927083 128.234 1.10938 129.797 1.5C131.359 1.89062 132.766 2.58073 134.016 3.57031C136.854 5.8099 138.273 9.29948 138.273 14.0391C138.273 18.987 135.07 25.5625 128.664 33.7656C126.555 36.474 124.419 39.3125 122.258 42.2812C120.096 45.25 118.404 47.5417 117.18 49.1562C115.982 50.7708 114.875 52.2552 113.859 53.6094C111.646 56.6042 110.253 58.388 109.68 58.9609C108.716 59.9245 108.859 60.4062 110.109 60.4062C115.292 60.4062 121.815 60.849 129.68 61.7344C131.607 62.125 134.354 61.0573 137.922 58.5312C139.38 57.4896 140.109 57.5807 140.109 58.8047C140.109 59.4557 139.953 60.1719 139.641 60.9531C139.094 62.4115 138.82 63.7656 138.82 65.0156L139.172 68.4922C139.172 69.638 138.573 69.9505 137.375 69.4297C137.062 69.2995 136.789 69.1172 136.555 68.8828C136.346 68.6745 135.982 68.388 135.461 68.0234C134.94 67.6589 134.38 67.2812 133.781 66.8906C132.401 66.0312 131.268 65.5104 130.383 65.3281C129.497 65.1719 128.195 64.9896 126.477 64.7812C124.758 64.599 122.896 64.4427 120.891 64.3125C116.125 64 112.258 63.8438 109.289 63.8438L104.328 64.0391ZM157.141 64.0391C155.474 64.0391 154.979 63.349 155.656 61.9688C156.151 61.0052 159.016 57.0729 164.25 50.1719L177.375 33.2188C183.885 24.5469 187.141 18.1667 187.141 14.0781C187.141 11.1094 186.255 8.73958 184.484 6.96875C182.792 5.27604 180.578 4.42969 177.844 4.42969C175.448 4.42969 173.026 5.1849 170.578 6.69531C168.495 7.9974 167.232 9.22135 166.789 10.3672C166.164 11.9557 165.812 13.1146 165.734 13.8438C165.656 14.5729 165.604 15.3932 165.578 16.3047C165.526 17.8411 165.279 18.6094 164.836 18.6094C164.549 18.6094 164.237 18.4141 163.898 18.0234C163.56 17.6328 163.234 17.3073 162.922 17.0469C162.609 16.7604 162.102 16.3568 161.398 15.8359C160.721 15.3151 160.031 14.7812 159.328 14.2344C157.609 12.8281 156.75 11.9167 156.75 11.5C156.75 11.0833 156.932 10.7969 157.297 10.6406C157.661 10.4844 158.13 10.3542 158.703 10.25C160.604 9.85938 161.841 9.46875 162.414 9.07812C162.987 8.6875 163.495 8.27083 163.938 7.82812C164.38 7.38542 164.914 6.8776 165.539 6.30469C166.19 5.73177 166.932 5.13281 167.766 4.50781C168.599 3.88281 169.536 3.29688 170.578 2.75C172.896 1.57812 175.083 0.979167 177.141 0.953125C179.224 0.927083 181.047 1.10938 182.609 1.5C184.172 1.89062 185.578 2.58073 186.828 3.57031C189.667 5.8099 191.086 9.29948 191.086 14.0391C191.086 18.987 187.883 25.5625 181.477 33.7656C179.367 36.474 177.232 39.3125 175.07 42.2812C172.909 45.25 171.216 47.5417 169.992 49.1562C168.794 50.7708 167.688 52.2552 166.672 53.6094C164.458 56.6042 163.065 58.388 162.492 58.9609C161.529 59.9245 161.672 60.4062 162.922 60.4062C168.104 60.4062 174.628 60.849 182.492 61.7344C184.419 62.125 187.167 61.0573 190.734 58.5312C192.193 57.4896 192.922 57.5807 192.922 58.8047C192.922 59.4557 192.766 60.1719 192.453 60.9531C191.906 62.4115 191.633 63.7656 191.633 65.0156L191.984 68.4922C191.984 69.638 191.385 69.9505 190.188 69.4297C189.875 69.2995 189.602 69.1172 189.367 68.8828C189.159 68.6745 188.794 68.388 188.273 68.0234C187.753 67.6589 187.193 67.2812 186.594 66.8906C185.214 66.0312 184.081 65.5104 183.195 65.3281C182.31 65.1719 181.008 64.9896 179.289 64.7812C177.57 64.599 175.708 64.4427 173.703 64.3125C168.938 64 165.07 63.8438 162.102 63.8438L157.141 64.0391Z" fill="#060606"/>
</svg>
