<svg width="293" height="75" viewBox="0 0 293 75" fill="none" xmlns="http://www.w3.org/2000/svg">
<path d="M48.4375 74.1094C47.7083 74.1094 46.875 73.7188 45.9375 72.9375C45.026 72.1823 44.375 71.6875 43.9844 71.4531C43.151 70.9844 42.2786 70.724 41.3672 70.6719C40.4818 70.6198 39.7005 70.6589 39.0234 70.7891C38.3724 70.9193 37.5781 71.0625 36.6406 71.2188C32.9948 71.7656 30.026 71.9609 27.7344 71.8047C23.5677 71.5182 20.5078 71.0495 18.5547 70.3984C16.6016 69.7474 14.7917 68.9531 13.125 68.0156C11.4844 67.0521 9.86979 65.8672 8.28125 64.4609C6.71875 63.0547 5.33854 61.375 4.14062 59.4219C1.43229 55.125 0.078125 50.0729 0.078125 44.2656C0.078125 32.7031 4.97396 24.526 14.7656 19.7344C21.1458 16.5833 29.388 14.9297 39.4922 14.7734C41.0807 14.7734 42.6042 14.1615 44.0625 12.9375C44.4792 12.5729 44.8177 12.1823 45.0781 11.7656C45.651 10.8802 46.4062 10.4375 47.3438 10.4375C48.3073 10.4375 48.7891 10.8802 48.7891 11.7656C48.7891 11.7656 48.5938 12.5729 48.2031 14.1875C47.6562 16.7656 47.3828 19.1354 47.3828 21.2969L47.5 22.9375C47.5 23.875 47.1354 24.3438 46.4062 24.3438C45.7552 24.3438 45.0651 23.8229 44.3359 22.7812C43.6328 21.7135 42.8906 20.8932 42.1094 20.3203C41.3542 19.7474 40.5469 19.3177 39.6875 19.0312C38.5417 18.6667 36.6667 18.4844 34.0625 18.4844C31.4844 18.4844 28.9583 18.7188 26.4844 19.1875C24.0104 19.6562 21.6667 20.3594 19.4531 21.2969C17.2396 22.2083 15.1823 23.3542 13.2812 24.7344C11.4062 26.1146 9.77865 27.7292 8.39844 29.5781C5.45573 33.5104 3.98438 38.1198 3.98438 43.4062C3.98438 52.3125 6.875 58.901 12.6562 63.1719C17.3698 66.6615 23.0469 68.4062 29.6875 68.4062C35.8073 68.4062 40.026 67.2865 42.3438 65.0469C42.8906 64.5 43.4115 63.7448 43.9062 62.7812C44.401 61.8177 45.026 60.9844 45.7812 60.2812C46.5365 59.5781 47.1875 59.2266 47.7344 59.2266C48.6458 59.2266 49.1016 59.9818 49.1016 61.4922L48.7891 65.3594C48.7891 66.8438 48.9974 68.6797 49.4141 70.8672C49.8307 73.0286 49.5052 74.1094 48.4375 74.1094ZM88.1641 71.0234C87.1745 71.0234 86.1979 70.9193 85.2344 70.7109C84.2708 70.5026 83.0729 70.3984 81.6406 70.3984C81.224 70.4505 80.3776 70.737 79.1016 71.2578C76.7057 72.2734 74.5443 72.7552 72.6172 72.7031C70.6901 72.651 69.0234 72.2083 67.6172 71.375C66.2109 70.5156 65.0781 69.2656 64.2188 67.625C62.5521 64.526 61.7188 59.6432 61.7188 52.9766L62.2656 16.8828C62.2656 11.5703 62.0182 8.23698 61.5234 6.88281C61.1849 5.94531 60.7422 5.29427 60.1953 4.92969C59.6484 4.5651 59.0885 4.17448 58.5156 3.75781C57.9427 3.34115 57.6562 2.85938 57.6562 2.3125C57.6562 1.42708 58.4635 0.984375 60.0781 0.984375L63.0078 1.14062L69.5703 0.867188C70.8724 0.867188 71.5234 1.3099 71.5234 2.19531C71.5234 2.74219 71.263 3.22396 70.7422 3.64062C70.2474 4.03125 69.6745 4.47396 69.0234 4.96875C67.2786 6.29688 66.3151 7.80729 66.1328 9.5C65.7161 13.0417 65.5078 27.5339 65.5078 52.9766C65.5078 63.1589 67.5521 68.5365 71.6406 69.1094C73.125 69.3438 74.2708 69.3438 75.0781 69.1094C75.8854 68.849 76.5755 68.5885 77.1484 68.3281C77.5651 68.1458 78.5156 67.651 80 66.8438C80.4948 66.5833 80.8984 66.0755 81.2109 65.3203C81.5495 64.5391 81.888 63.5885 82.2266 62.4688C82.5651 61.3229 82.9167 60.6198 83.2812 60.3594C83.6458 60.0729 84.0234 59.9297 84.4141 59.9297C84.8307 59.9297 85.1432 60.112 85.3516 60.4766C85.5859 60.8411 85.8333 61.362 86.0938 62.0391C86.901 64.3047 87.6302 65.8932 88.2812 66.8047C90.1562 69.4089 90.1172 70.8151 88.1641 71.0234ZM141.797 71.8828C140.573 71.8828 140.13 71.0234 140.469 69.3047C141.146 66.1276 141.328 64.1224 141.016 63.2891L133.828 52C132.448 49.7865 130.99 47.3516 129.453 44.6953C128.255 47.9505 127.135 50.6198 126.094 52.7031C125.078 54.7865 123.685 56.8958 121.914 59.0312C120.143 61.1667 118.411 62.9896 116.719 64.5C111.016 69.5781 105.794 72.1172 101.055 72.1172C98.5547 72.1172 96.5625 71.3099 95.0781 69.6953C93.3333 67.6901 93.0339 64.7865 94.1797 60.9844C95.6901 55.9323 99.3359 51.3359 105.117 47.1953C110.326 43.4453 115.885 40.8802 121.797 39.5C123.385 39.1094 124.805 38.849 126.055 38.7188C123.216 33.7188 121.367 30.3203 120.508 28.5234C120.039 27.9505 119.375 27.5208 118.516 27.2344C115.312 26.1406 113.49 25.4635 113.047 25.2031C112.604 24.9167 112.383 24.5911 112.383 24.2266C112.383 23.3932 113.06 22.7682 114.414 22.3516C116.758 21.7005 118.828 20.6458 120.625 19.1875C121.641 18.3281 122.63 17.8984 123.594 17.8984C124.557 17.8984 125.039 18.4062 125.039 19.4219L123.594 24.1875C123.307 25.3333 123.333 26.2318 123.672 26.8828L131.953 42.1172C135.547 48.5495 138.867 53.9271 141.914 58.25C142.982 59.7865 143.802 60.75 144.375 61.1406C144.974 61.5052 145.69 61.8568 146.523 62.1953C147.357 62.5339 148.151 62.8594 148.906 63.1719C150.755 63.9531 151.68 64.6693 151.68 65.3203C151.68 66.0495 151.016 66.6745 149.688 67.1953C148.385 67.7161 147.318 68.25 146.484 68.7969C145.677 69.3438 145 69.8516 144.453 70.3203C143.932 70.763 143.477 71.1406 143.086 71.4531C142.695 71.7396 142.266 71.8828 141.797 71.8828ZM98.2031 61.5312C97.8646 62.6771 97.6953 63.5885 97.6953 64.2656C97.6953 64.9427 97.7734 65.5156 97.9297 65.9844C98.0859 66.4531 98.3073 66.8698 98.5938 67.2344C99.2708 68.0156 100.039 68.4062 100.898 68.4062C102.461 68.4062 104.232 68.0156 106.211 67.2344C108.19 66.4271 109.961 65.4375 111.523 64.2656C113.086 63.0677 114.609 61.7005 116.094 60.1641C119.271 56.8568 121.732 53.4974 123.477 50.0859C125.039 47.1172 126.237 44.3828 127.07 41.8828C122.956 42.2474 118.568 43.5885 113.906 45.9062C109.635 48.0156 106.042 50.6458 103.125 53.7969C100.599 56.5312 98.9583 59.1094 98.2031 61.5312ZM175.273 28.0156C175.273 28.7969 175.052 29.1875 174.609 29.1875C174.193 29.1875 173.75 29.0052 173.281 28.6406C172.839 28.276 172.396 27.8724 171.953 27.4297C170.729 26.2578 169.909 25.6589 169.492 25.6328C169.076 25.5807 168.568 25.5938 167.969 25.6719C167.37 25.724 166.732 25.8411 166.055 26.0234C165.378 26.2057 164.688 26.4531 163.984 26.7656C163.281 27.0781 162.656 27.4948 162.109 28.0156C160.807 29.1615 160.156 30.6198 160.156 32.3906C160.156 34.4219 161.927 36.7656 165.469 39.4219C168.229 41.5052 170.195 43.0807 171.367 44.1484C172.539 45.2161 173.516 46.2708 174.297 47.3125C176.042 49.6823 176.914 52.2083 176.914 54.8906C176.914 59.9688 174.076 63.6927 168.398 66.0625C166.576 66.8438 165.169 67.2344 164.18 67.2344C163.19 67.2344 162.331 67.4948 161.602 68.0156C160.898 68.5365 160.247 69.1094 159.648 69.7344C159.049 70.3333 158.516 70.8932 158.047 71.4141C157.604 71.9349 157.253 72.1953 156.992 72.1953C156.758 72.1953 156.562 72.1302 156.406 72C156.25 71.8698 156.12 71.7135 156.016 71.5312C155.807 71.1146 155.703 70.737 155.703 70.3984L155.508 63.4844C155.508 60.3073 156.042 59.1354 157.109 59.9688C157.37 60.151 157.708 60.5156 158.125 61.0625C158.568 61.6094 158.919 62.026 159.18 62.3125C159.466 62.599 159.805 62.8333 160.195 63.0156C161.784 63.7708 163.906 63.7578 166.562 62.9766C169.661 62.0651 171.771 60.4115 172.891 58.0156C174.661 54.2396 173.021 50.2031 167.969 45.9062L161.992 41.2578C158.346 38.3672 156.523 35.4115 156.523 32.3906C156.523 27.8594 159.023 24.7604 164.023 23.0938C165.612 22.5469 167.07 22.2734 168.398 22.2734C168.711 22.2734 169.388 21.7786 170.43 20.7891C171.497 19.7995 172.227 19.1354 172.617 18.7969C173.555 17.9896 174.115 17.5859 174.297 17.5859C174.766 17.5859 175 18.4062 175 20.0469L174.961 23.25L175.273 28.0156ZM208.555 28.0156C208.555 28.7969 208.333 29.1875 207.891 29.1875C207.474 29.1875 207.031 29.0052 206.562 28.6406C206.12 28.276 205.677 27.8724 205.234 27.4297C204.01 26.2578 203.19 25.6589 202.773 25.6328C202.357 25.5807 201.849 25.5938 201.25 25.6719C200.651 25.724 200.013 25.8411 199.336 26.0234C198.659 26.2057 197.969 26.4531 197.266 26.7656C196.562 27.0781 195.938 27.4948 195.391 28.0156C194.089 29.1615 193.438 30.6198 193.438 32.3906C193.438 34.4219 195.208 36.7656 198.75 39.4219C201.51 41.5052 203.477 43.0807 204.648 44.1484C205.82 45.2161 206.797 46.2708 207.578 47.3125C209.323 49.6823 210.195 52.2083 210.195 54.8906C210.195 59.9688 207.357 63.6927 201.68 66.0625C199.857 66.8438 198.451 67.2344 197.461 67.2344C196.471 67.2344 195.612 67.4948 194.883 68.0156C194.18 68.5365 193.529 69.1094 192.93 69.7344C192.331 70.3333 191.797 70.8932 191.328 71.4141C190.885 71.9349 190.534 72.1953 190.273 72.1953C190.039 72.1953 189.844 72.1302 189.688 72C189.531 71.8698 189.401 71.7135 189.297 71.5312C189.089 71.1146 188.984 70.737 188.984 70.3984L188.789 63.4844C188.789 60.3073 189.323 59.1354 190.391 59.9688C190.651 60.151 190.99 60.5156 191.406 61.0625C191.849 61.6094 192.201 62.026 192.461 62.3125C192.747 62.599 193.086 62.8333 193.477 63.0156C195.065 63.7708 197.188 63.7578 199.844 62.9766C202.943 62.0651 205.052 60.4115 206.172 58.0156C207.943 54.2396 206.302 50.2031 201.25 45.9062L195.273 41.2578C191.628 38.3672 189.805 35.4115 189.805 32.3906C189.805 27.8594 192.305 24.7604 197.305 23.0938C198.893 22.5469 200.352 22.2734 201.68 22.2734C201.992 22.2734 202.669 21.7786 203.711 20.7891C204.779 19.7995 205.508 19.1354 205.898 18.7969C206.836 17.9896 207.396 17.5859 207.578 17.5859C208.047 17.5859 208.281 18.4062 208.281 20.0469L208.242 23.25L208.555 28.0156ZM225.664 73.7969C224.336 73.7969 223.672 73.3021 223.672 72.3125C223.672 71.8958 224.036 71.2057 224.766 70.2422C225.495 69.2526 226.198 68.3021 226.875 67.3906C227.578 66.4531 227.969 65.724 228.047 65.2031L228.906 32.8984C228.88 32.1172 228.607 31.4271 228.086 30.8281C227.591 30.2292 227.044 29.6562 226.445 29.1094C225.846 28.5625 225.299 28.0286 224.805 27.5078C224.31 26.987 224.062 26.4271 224.062 25.8281C224.062 24.6823 224.987 24.3307 226.836 24.7734C228.242 25.112 229.753 25.2812 231.367 25.2812L235.781 25.0859C237.109 25.0859 237.773 25.5807 237.773 26.5703C237.773 27.1172 237.37 27.7031 236.562 28.3281C235.781 28.9271 235.13 29.4479 234.609 29.8906C234.115 30.3333 233.724 30.724 233.438 31.0625C232.943 31.6094 232.695 32.1172 232.695 32.5859L231.875 62.625L231.914 65.2812C231.914 66.401 232.292 67.5208 233.047 68.6406C233.828 69.7344 234.388 70.5286 234.727 71.0234C235.091 71.5182 235.273 71.9479 235.273 72.3125C235.273 73.224 234.531 73.6797 233.047 73.6797L231.328 73.6016L225.664 73.7969ZM235.547 10.75C237.839 10.75 238.411 11.5052 237.266 13.0156L232.93 18.25C231.94 20.099 231.029 20.138 230.195 18.3672L227.266 14.6562C226.042 12.9896 225.43 11.8958 225.43 11.375C225.43 10.6198 225.911 10.2422 226.875 10.2422C229.896 10.6068 232.422 10.7891 234.453 10.7891L235.547 10.75ZM290.391 60.0469C290.391 63.1719 290.781 66.0234 291.562 68.6016C292.214 70.5807 291.914 71.5703 290.664 71.5703C290.143 71.5703 289.505 71.388 288.75 71.0234C287.995 70.6328 287.435 70.2812 287.07 69.9688C286.732 69.6562 286.406 69.3828 286.094 69.1484C285.052 68.3151 283.281 68.1719 280.781 68.7188C275.807 69.7604 272.135 70.2812 269.766 70.2812C267.396 70.2812 265.469 70.151 263.984 69.8906C262.5 69.6302 260.99 69.1745 259.453 68.5234C257.943 67.8724 256.458 66.987 255 65.8672C253.542 64.7214 252.24 63.2891 251.094 61.5703C248.568 57.7943 247.305 52.9375 247.305 47C247.305 42 248.724 37.6771 251.562 34.0312C253.906 31.0625 257.096 28.7448 261.133 27.0781C264.492 25.6979 267.839 25.0078 271.172 25.0078L277.344 25.5547C279.401 25.5547 281.159 24.8255 282.617 23.3672C283.294 22.6901 284.01 22.3516 284.766 22.3516C285.833 22.3516 286.185 22.8984 285.82 23.9922C284.701 27.3516 284.141 30.1901 284.141 32.5078C284.141 32.5078 284.193 32.9635 284.297 33.875C284.297 34.2917 284.193 34.6562 283.984 34.9688C283.802 35.2812 283.568 35.4375 283.281 35.4375C282.734 35.4375 282.174 35.0339 281.602 34.2266C281.055 33.4193 280.599 32.7161 280.234 32.1172C279.87 31.5182 279.505 30.9844 279.141 30.5156C278.281 29.5 277.357 28.9271 276.367 28.7969C274.049 28.4844 272.201 28.3281 270.82 28.3281C269.44 28.3281 267.982 28.5234 266.445 28.9141C264.909 29.2786 263.398 29.8125 261.914 30.5156C260.456 31.2188 259.076 32.0911 257.773 33.1328C256.497 34.1745 255.365 35.3594 254.375 36.6875C252.266 39.5781 251.211 42.8594 251.211 46.5312C251.211 50.2031 251.758 53.3672 252.852 56.0234C253.945 58.6536 255.378 60.776 257.148 62.3906C260.456 65.3594 264.792 66.8438 270.156 66.8438C272.422 66.8438 274.518 66.6354 276.445 66.2188C278.372 65.8021 279.857 65.4375 280.898 65.125C281.966 64.8125 282.839 64.5 283.516 64.1875C284.219 63.849 284.766 63.4974 285.156 63.1328C285.573 62.7682 285.911 62.3906 286.172 62L287.617 59.3047C288.164 58.2891 288.763 57.7812 289.414 57.7812C290.065 57.7812 290.391 58.5365 290.391 60.0469Z" fill="#060606"/>
</svg>
