<svg width="42" height="27" viewBox="0 0 42 27" fill="none" xmlns="http://www.w3.org/2000/svg">
<path d="M10.908 13.0161C7.66125 16.2628 4.41451 19.5095 1.16777 22.7563C0.334191 23.5899 2.83493 21.0891 3.66851 20.2555C9.20173 14.7223 14.735 9.18911 20.2682 3.65589C21.1049 2.81918 21.9416 1.98247 22.7783 1.14576C22.7826 1.14142 23.0125 0.911555 22.8862 1.03785C22.4746 1.44949 33.7689 12.3974 33.8791 12.5094" stroke="#060606" stroke-width="2" stroke-linecap="round"/>
<path d="M33.879 12.5093C29.7408 16.6475 25.6027 20.7856 21.4645 24.9238C20.6979 25.6905 22.2189 24.1694 22.37 24.0183C23.166 23.2223 23.9621 22.4262 24.7581 21.6302C26.835 19.5533 28.912 17.4764 30.9889 15.3994C31.0943 15.294 38.326 22.8466 38.8524 23.3943C39.3982 23.9622 39.9456 24.5289 40.4757 25.1115C41.0342 25.7254 41.1661 25.6839 40.776 25.6839C40.5039 25.6839 40.2318 25.6839 39.9596 25.6839C38.2831 25.6839 36.6065 25.6839 34.93 25.6839C33.2972 25.6839 31.6645 25.6839 30.0317 25.6839C29.2378 25.6839 28.3176 25.8048 27.6295 25.3461" stroke="#060606" stroke-width="2" stroke-linecap="round"/>
</svg>
