<svg width="61" height="25" viewBox="0 0 61 25" fill="none" xmlns="http://www.w3.org/2000/svg">
<path d="M18.82 11.204L23.212 20.924L29.008 6.092C29.512 4.796 29.764 3.836 29.764 3.212C29.764 2.588 29.464 2.216 28.864 2.096L27.388 1.808V1.232C27.628 1.304 28.54 1.34 30.124 1.34C31.708 1.34 32.704 1.304 33.112 1.232V1.808L32.032 2.132C31.672 2.252 31.396 2.42 31.204 2.636C31.012 2.852 30.82 3.224 30.628 3.752L22.816 24.632H22.06L17.344 14.3L12.34 24.632H11.584L3.556 4.724C3.34 4.22 3.16 3.812 3.016 3.5C2.896 3.164 2.764 2.912 2.62 2.744C2.5 2.552 2.368 2.408 2.224 2.312C2.104 2.216 1.936 2.132 1.72 2.06L0.676 1.808V1.232C1.276 1.304 2.392 1.34 4.024 1.34C5.68 1.34 6.94 1.304 7.804 1.232V1.808L6.112 2.132C5.92 2.18 5.824 2.288 5.824 2.456C5.824 2.792 6.088 3.608 6.616 4.904L13.132 21.32L16.876 13.292L13.132 4.688C12.892 4.16 12.688 3.74 12.52 3.428C12.352 3.092 12.196 2.84 12.052 2.672C11.932 2.48 11.812 2.348 11.692 2.276C11.572 2.204 11.44 2.156 11.296 2.132L9.532 1.808V1.232C10.204 1.304 11.608 1.34 13.744 1.34C15.856 1.34 17.188 1.304 17.74 1.232V1.808L15.652 2.204C15.436 2.252 15.328 2.384 15.328 2.6C15.328 2.888 15.592 3.644 16.12 4.868L18.316 10.088L21.16 3.752C21.352 3.368 21.376 2.996 21.232 2.636C21.112 2.276 20.872 2.072 20.512 2.024L19.288 1.808V1.232C19.888 1.304 21.016 1.34 22.672 1.34C24.304 1.34 25.36 1.304 25.84 1.232V1.808L24.148 2.132C23.332 2.3 22.708 2.852 22.276 3.788L18.82 11.204ZM60.8067 14.444L58.4667 14.696C58.0587 14.744 57.7707 14.84 57.6027 14.984C57.4587 15.128 57.3867 15.368 57.3867 15.704V19.7C57.3867 20.348 57.3747 20.864 57.3507 21.248C57.3267 21.632 57.2427 21.944 57.0987 22.184C56.9787 22.4 56.7747 22.58 56.4867 22.724C56.1987 22.868 55.7907 23.036 55.2627 23.228C54.3267 23.588 53.2347 23.876 51.9867 24.092C50.7627 24.308 49.4667 24.416 48.0987 24.416C46.1547 24.416 44.3907 24.14 42.8067 23.588C41.2227 23.036 39.8667 22.268 38.7387 21.284C37.6107 20.3 36.7347 19.112 36.1107 17.72C35.5107 16.328 35.2107 14.792 35.2107 13.112C35.2107 11.312 35.5587 9.668 36.2547 8.18C36.9507 6.692 37.9107 5.42 39.1347 4.364C40.3587 3.284 41.8107 2.456 43.4907 1.88C45.1947 1.28 47.0427 0.979998 49.0347 0.979998C52.2267 0.979998 54.8907 1.556 57.0267 2.708L57.3147 7.028L56.8107 7.136C55.3227 3.56 52.8987 1.772 49.5387 1.772C47.8827 1.772 46.3827 2.036 45.0387 2.564C43.7187 3.068 42.5907 3.8 41.6547 4.76C40.7187 5.696 39.9987 6.836 39.4947 8.18C39.0147 9.524 38.7747 11.024 38.7747 12.68C38.7747 14.096 39.0267 15.464 39.5307 16.784C40.0587 18.08 40.7787 19.232 41.6907 20.24C42.6267 21.248 43.7187 22.052 44.9667 22.652C46.2147 23.252 47.5707 23.552 49.0347 23.552C52.6347 23.552 54.4347 22.268 54.4347 19.7V15.704C54.4347 15.344 54.3387 15.092 54.1467 14.948C53.9787 14.804 53.7027 14.72 53.3187 14.696L49.8627 14.444V13.796C51.7347 13.892 53.5587 13.94 55.3347 13.94C57.1107 13.94 58.9347 13.892 60.8067 13.796V14.444Z" fill="black"/>
</svg>
